<svg xmlns:xlink="http://www.w3.org/1999/xlink" xmlns="http://www.w3.org/2000/svg" clip-rule="evenodd" fill-rule="evenodd" image-rendering="optimizeQuality" shape-rendering="geometricPrecision" text-rendering="geometricPrecision" viewBox="0 0 12.5 8.19" style="fill: rgb(0, 0, 0);" role="img" width="185"  height="114" ><g><path d="M12.5 4.71l0 -0.99c-0.25,-0.01 -0.44,-0.06 -0.57,-0.16 -0.13,-0.1 -0.21,-0.24 -0.26,-0.43 -0.05,-0.19 -0.07,-0.51 -0.07,-0.95 0,-0.47 -0.02,-0.81 -0.07,-1.02 -0.05,-0.21 -0.13,-0.38 -0.26,-0.52 -0.13,-0.13 -0.3,-0.23 -0.51,-0.3 -0.21,-0.06 -0.5,-0.1 -0.87,-0.1l-0.22 0 0 0.99c0.37,0 0.6,0.04 0.7,0.11 0.1,0.07 0.14,0.24 0.14,0.49 0,0.77 0.05,1.31 0.14,1.62 0.09,0.31 0.31,0.56 0.64,0.76 -0.25,0.14 -0.45,0.34 -0.58,0.62 -0.13,0.27 -0.2,0.86 -0.2,1.77 0,0.22 -0.03,0.35 -0.09,0.42 -0.06,0.06 -0.13,0.11 -0.2,0.14 -0.07,0.03 -0.25,0.04 -0.55,0.04l0 0.99 0.22 0c0.56,0 0.93,-0.07 1.13,-0.2 0.2,-0.14 0.34,-0.29 0.43,-0.47 0.09,-0.18 0.14,-0.59 0.14,-1.25 0,-0.44 0.02,-0.76 0.07,-0.95 0.05,-0.19 0.13,-0.34 0.26,-0.44 0.13,-0.1 0.32,-0.16 0.57,-0.17zm-12.5 0c0.25,0.01 0.44,0.07 0.57,0.17 0.13,0.1 0.21,0.24 0.26,0.43 0.05,0.19 0.07,0.51 0.07,0.96 0,0.64 0.05,1.06 0.14,1.25 0.09,0.19 0.25,0.35 0.46,0.48 0.21,0.13 0.58,0.19 1.11,0.19l0.22 0 0 -0.99c-0.35,0 -0.57,-0.04 -0.68,-0.12 -0.11,-0.08 -0.16,-0.24 -0.16,-0.48 0,-0.79 -0.05,-1.34 -0.15,-1.65 -0.1,-0.31 -0.31,-0.55 -0.62,-0.73 0.34,-0.2 0.55,-0.46 0.64,-0.78 0.09,-0.32 0.13,-0.85 0.13,-1.6 0,-0.26 0.05,-0.42 0.15,-0.49 0.1,-0.07 0.33,-0.11 0.69,-0.11l0 -0.99 -0.22 0c-0.48,0 -0.84,0.06 -1.08,0.18 -0.24,0.12 -0.41,0.3 -0.49,0.54 -0.09,0.24 -0.13,0.64 -0.13,1.21 0,0.44 -0.02,0.75 -0.07,0.94 -0.05,0.19 -0.13,0.34 -0.26,0.44 -0.13,0.1 -0.32,0.16 -0.57,0.17l0 0.99z" fill-rule="nonzero" style="" fill="#008037"></path><path d="M4.06 7.7l0.78 0c0.21,0 0.39,0.17 0.39,0.39l0 -7.7c0,-0.21 -0.17,-0.39 -0.39,-0.39l-0.78 0c-0.21,0 -0.39,0.17 -0.39,0.39l0 7.7c0,-0.21 0.17,-0.39 0.39,-0.39z" style="" fill="#7ED957"></path><path d="M5.9 7.6l0.78 0c0.21,0 0.39,0.17 0.39,0.39l0 -5.82c0,-0.21 -0.17,-0.39 -0.39,-0.39l-0.78 0c-0.21,0 -0.39,0.17 -0.39,0.39l0 5.82c0,0.21 0.17,-0.39 0.39,-0.39z" style="" fill="#C9E265"></path><path d="M7.67 7.7l0.78 0c0.21,0 0.39,0.17 0.39,0.39l0 -7.7c0,-0.21 -0.17,-0.39 -0.39,-0.39l-0.78 0c-0.21,0 -0.39,0.17 -0.39,0.39l0 7.7c0,-0.21 0.17,-0.39 0.39,-0.39z" style="" fill="#7ED957"></path></g></svg>